Archétype.ufo
<glyph name="zero" format="1">
  <advance width="100"/>
  <unicode hex="0030"/>
  <outline>
    <contour>
      <point x="48" y="-2" type="curve" smooth="yes"/>
      <point x="19" y="-2"/>
      <point x="7" y="18"/>
      <point x="7" y="48" type="curve" smooth="yes"/>
      <point x="7" y="152" type="line" smooth="yes"/>
      <point x="7" y="182"/>
      <point x="19" y="202"/>
      <point x="48" y="202" type="curve" smooth="yes"/>
      <point x="76" y="202"/>
      <point x="88" y="182"/>
      <point x="88" y="152" type="curve" smooth="yes"/>
      <point x="88" y="48" type="line" smooth="yes"/>
      <point x="88" y="18"/>
      <point x="76" y="-2"/>
    </contour>
    <contour>
      <point x="48" y="182" type="curve" smooth="yes"/>
      <point x="32" y="182"/>
      <point x="27" y="170"/>
      <point x="27" y="152" type="curve" smooth="yes"/>
      <point x="27" y="48" type="line" smooth="yes"/>
      <point x="27" y="30"/>
      <point x="32" y="18"/>
      <point x="48" y="18" type="curve" smooth="yes"/>
      <point x="64" y="18"/>
      <point x="68" y="31"/>
      <point x="68" y="48" type="curve" smooth="yes"/>
      <point x="68" y="152" type="line" smooth="yes"/>
      <point x="68" y="169"/>
      <point x="64" y="182"/>
    </contour>
    <contour>
      <point x="79.0" y="147.0" type="line"/>
      <point x="79.0" y="119.0" type="line"/>
    </contour>
    <contour>
      <point x="17.0" y="85.0" type="line"/>
      <point x="79.0" y="147.0" type="line"/>
      <point x="79.0" y="119.0" type="line"/>
      <point x="17.0" y="57.0" type="line"/>
    </contour>
    <contour>
      <point x="17.0" y="85.0" type="line"/>
      <point x="17.0" y="57.0" type="line"/>
    </contour>
  </outline>
</glyph>
<glyph name="A" format="1">
  <advance width="100"/>
  <unicode hex="0041"/>
  <outline>
    <contour>
      <point x="81.0" y="40.0" type="line"/>
      <point x="71.0" y="60.0" type="line"/>
      <point x="30.0" y="60.0" type="line"/>
      <point x="20.0" y="40.0" type="line"/>
    </contour>
    <contour>
      <point x="20.0" y="0.0" type="line"/>
      <point x="56.0" y="200.0" type="line"/>
      <point x="36.0" y="200.0" type="line"/>
      <point x="0.0" y="0.0" type="line"/>
      <point x="0.0" y="0.0" type="line"/>
    </contour>
    <contour>
      <point x="91.0" y="0.0" type="line"/>
      <point x="56.0" y="200.0" type="line"/>
      <point x="36.0" y="200.0" type="line"/>
      <point x="71.0" y="0.0" type="line"/>
    </contour>
  </outline>
</glyph>
<glyph name="C" format="1">
  <advance width="100.0"/>
  <unicode hex="0043"/>
  <outline>
    <contour>
      <point x="70" y="48" type="line"/>
      <point x="70" y="32"/>
      <point x="60" y="18"/>
      <point x="45" y="18" type="curve" smooth="yes"/>
      <point x="30" y="18"/>
      <point x="20" y="32"/>
      <point x="20" y="48" type="curve" smooth="yes"/>
      <point x="20" y="152" type="line" smooth="yes"/>
      <point x="20" y="168"/>
      <point x="30" y="182"/>
      <point x="45" y="182" type="curve" smooth="yes"/>
      <point x="60" y="182"/>
      <point x="70" y="168"/>
      <point x="70" y="152" type="curve"/>
      <point x="70" y="140" type="line"/>
      <point x="90" y="140" type="line"/>
      <point x="90" y="152" type="line"/>
      <point x="90" y="179"/>
      <point x="71" y="202"/>
      <point x="45" y="202" type="curve" smooth="yes"/>
      <point x="19" y="202"/>
      <point x="0" y="179"/>
      <point x="0" y="152" type="curve" smooth="yes"/>
      <point x="0" y="48" type="line" smooth="yes"/>
      <point x="0" y="21"/>
      <point x="19" y="-2"/>
      <point x="45" y="-2" type="curve" smooth="yes"/>
      <point x="71" y="-2"/>
      <point x="90" y="21"/>
      <point x="90" y="48" type="curve"/>
      <point x="90" y="60" type="line"/>
      <point x="70" y="60" type="line"/>
    </contour>
  </outline>
</glyph>
<glyph name="E" format="1">
  <advance width="100"/>
  <unicode hex="0045"/>
  <outline>
    <contour>
      <point x="30.0" y="0.0" type="line"/>
      <point x="10.0" y="0.0" type="line"/>
      <point x="10" y="199" type="line"/>
      <point x="30" y="199" type="line"/>
    </contour>
    <contour>
      <point x="79" y="179" type="line"/>
      <point x="20" y="179" type="line"/>
      <point x="20" y="199" type="line"/>
      <point x="79" y="199" type="line"/>
    </contour>
    <contour>
      <point x="70.0" y="89.0" type="line"/>
      <point x="20.0" y="89.0" type="line"/>
      <point x="20.0" y="109.0" type="line"/>
      <point x="70.0" y="109.0" type="line"/>
    </contour>
    <contour>
      <point x="79.0" y="0.0" type="line"/>
      <point x="20.0" y="0.0" type="line"/>
      <point x="20.0" y="20.0" type="line"/>
      <point x="79.0" y="20.0" type="line"/>
    </contour>
  </outline>
</glyph>
<glyph name="G" format="1">
  <advance width="100"/>
  <unicode hex="0047"/>
  <outline>
    <contour>
      <point x="69" y="48" type="line" smooth="yes"/>
      <point x="69" y="31"/>
      <point x="61" y="18"/>
      <point x="45" y="18" type="curve" smooth="yes"/>
      <point x="28" y="18"/>
      <point x="20" y="31"/>
      <point x="20" y="48" type="curve" smooth="yes"/>
      <point x="20" y="152" type="line" smooth="yes"/>
      <point x="20" y="168"/>
      <point x="28" y="182"/>
      <point x="45" y="182" type="curve" smooth="yes"/>
      <point x="61" y="182"/>
      <point x="69" y="168"/>
      <point x="69" y="152" type="curve"/>
      <point x="89" y="152" type="line"/>
      <point x="89" y="179"/>
      <point x="72" y="202"/>
      <point x="45" y="202" type="curve" smooth="yes"/>
      <point x="17" y="202"/>
      <point x="0" y="179"/>
      <point x="0" y="152" type="curve" smooth="yes"/>
      <point x="0" y="48" type="line" smooth="yes"/>
      <point x="0" y="20"/>
      <point x="17" y="-2"/>
      <point x="45" y="-2" type="curve" smooth="yes"/>
      <point x="72" y="-2"/>
      <point x="89" y="20"/>
      <point x="89" y="48" type="curve" smooth="yes"/>
      <point x="89.376" y="89.3247" type="line"/>
      <point x="69.376" y="89.3247" type="line"/>
    </contour>
    <contour>
      <point x="89.296" y="79.3247" type="line"/>
      <point x="89.296" y="99.3247" type="line"/>
      <point x="44.698" y="99.3247" type="line"/>
      <point x="44.698" y="79.3247" type="line"/>
    </contour>
  </outline>
</glyph>
<glyph name="J" format="1">
  <advance width="100"/>
  <unicode hex="004A"/>
  <outline>
    <contour>
      <point x="80" y="45" type="line"/>
      <point x="80" y="45" type="line"/>
      <point x="80" y="18"/>
      <point x="68" y="0"/>
      <point x="43" y="0" type="curve" smooth="yes"/>
      <point x="17" y="0"/>
      <point x="5" y="18"/>
      <point x="5" y="45" type="curve" smooth="yes"/>
      <point x="5" y="60" type="line"/>
      <point x="25" y="60" type="line"/>
      <point x="25" y="45" type="line"/>
      <point x="25" y="45" type="line"/>
      <point x="25" y="30"/>
      <point x="30" y="20"/>
      <point x="43" y="20" type="curve" smooth="yes"/>
      <point x="56" y="20"/>
      <point x="60" y="31"/>
      <point x="60" y="45" type="curve"/>
      <point x="60" y="189" type="line"/>
      <point x="80" y="189" type="line"/>
    </contour>
    <contour>
      <point x="100" y="179" type="line"/>
      <point x="36" y="179" type="line"/>
      <point x="36" y="200" type="line"/>
      <point x="100" y="200" type="line"/>
    </contour>
  </outline>
</glyph>
<glyph name="K" format="1">
  <advance width="100"/>
  <unicode hex="004B"/>
  <outline>
    <contour>
      <point x="20.0" y="-0.0373999999999" type="line"/>
      <point x="0.0" y="-0.0373999999999" type="line"/>
      <point x="0.0" y="199.3806" type="line"/>
      <point x="20.0" y="199.3806" type="line"/>
    </contour>
    <contour>
      <point x="7.716" y="108.1466" type="line"/>
      <point x="64.366" y="199.3806" type="line"/>
      <point x="89.218" y="199.3806" type="line"/>
      <point x="23.79" y="96.2726" type="line"/>
    </contour>
    <contour>
      <point x="89.218" y="-0.0473999999999" type="line"/>
      <point x="64.366" y="-0.0473999999999" type="line"/>
      <point x="7.716" y="90.1886" type="line"/>
      <point x="23.79" y="102.0626" type="line"/>
    </contour>
  </outline>
</glyph>
<glyph name="L" format="1">
  <advance width="100"/>
  <unicode hex="004C"/>
  <outline>
    <contour>
      <point x="30.0" y="0.1108" type="line"/>
      <point x="10.0" y="0.1108" type="line"/>
      <point x="10.0" y="200.5288" type="line"/>
      <point x="30.0" y="200.5288" type="line"/>
    </contour>
    <contour>
      <point x="99" y="0" type="line"/>
      <point x="10.0" y="-0.0552" type="line"/>
      <point x="10.0" y="19.9448" type="line"/>
      <point x="99" y="20" type="line"/>
    </contour>
  </outline>
</glyph>
<glyph name="M" format="1">
  <advance width="100"/>
  <unicode hex="004D"/>
  <outline>
    <contour>
      <point x="20.0" y="-0.0473999999999" type="line"/>
      <point x="0.0" y="-0.0473999999999" type="line"/>
      <point x="0.0" y="199.3806" type="line"/>
      <point x="20.0" y="199.3806" type="line"/>
    </contour>
    <contour>
      <point x="34.98" y="39.6406" type="line"/>
      <point x="0.302" y="196.9586" type="line"/>
      <point x="19.698" y="199.3806" type="line"/>
      <point x="54.376" y="39.6406" type="line"/>
    </contour>
    <contour>
      <point x="89.366" y="-0.0473999999999" type="line"/>
      <point x="69.366" y="-0.0473999999999" type="line"/>
      <point x="69.366" y="199.3806" type="line"/>
      <point x="89.366" y="199.3806" type="line"/>
    </contour>
    <contour>
      <point x="54.386" y="39.6406" type="line"/>
      <point x="34.99" y="39.6406" type="line"/>
      <point x="69.668" y="199.3806" type="line"/>
      <point x="89.062" y="196.9586" type="line"/>
    </contour>
  </outline>
</glyph>
<glyph name="N" format="1">
  <advance width="100"/>
  <unicode hex="004E"/>
  <outline>
    <contour>
      <point x="30.0" y="-0.0474" type="line"/>
      <point x="10.0" y="-0.0474" type="line"/>
      <point x="10" y="199" type="line"/>
      <point x="30" y="199" type="line"/>
    </contour>
    <contour>
      <point x="70.078" y="-0.0474" type="line"/>
      <point x="11" y="199" type="line"/>
      <point x="29" y="199" type="line"/>
      <point x="88.652" y="-0.0474" type="line"/>
    </contour>
    <contour>
      <point x="89.364" y="-0.0474" type="line"/>
      <point x="69.364" y="-0.0474" type="line"/>
      <point x="69" y="199" type="line"/>
      <point x="89" y="199" type="line"/>
    </contour>
  </outline>
</glyph>
<glyph name="O" format="1">
  <advance width="100"/>
  <unicode hex="004F"/>
  <outline>
    <contour>
      <point x="45" y="-2" type="curve" smooth="yes"/>
      <point x="19" y="-2"/>
      <point x="0" y="21"/>
      <point x="0" y="48" type="curve" smooth="yes"/>
      <point x="0" y="152" type="line" smooth="yes"/>
      <point x="0" y="179"/>
      <point x="19" y="202"/>
      <point x="45" y="202" type="curve" smooth="yes"/>
      <point x="70" y="202"/>
      <point x="89" y="179"/>
      <point x="89" y="152" type="curve" smooth="yes"/>
      <point x="89" y="48" type="line" smooth="yes"/>
      <point x="89" y="21"/>
      <point x="70" y="-2"/>
    </contour>
    <contour>
      <point x="45" y="182" type="curve" smooth="yes"/>
      <point x="30" y="182"/>
      <point x="20" y="168"/>
      <point x="20" y="152" type="curve" smooth="yes"/>
      <point x="20" y="48" type="line" smooth="yes"/>
      <point x="20" y="32"/>
      <point x="30" y="18"/>
      <point x="45" y="18" type="curve" smooth="yes"/>
      <point x="59" y="18"/>
      <point x="69" y="32"/>
      <point x="69" y="48" type="curve" smooth="yes"/>
      <point x="69" y="152" type="line" smooth="yes"/>
      <point x="69" y="168"/>
      <point x="59" y="182"/>
    </contour>
  </outline>
</glyph>
<glyph name="Q" format="1">
  <advance width="100"/>
  <unicode hex="0051"/>
  <outline>
    <contour>
      <point x="50" y="-2" type="curve" smooth="yes"/>
      <point x="22" y="-2"/>
      <point x="10" y="18"/>
      <point x="10" y="48" type="curve" smooth="yes"/>
      <point x="10" y="152" type="line" smooth="yes"/>
      <point x="10" y="182"/>
      <point x="22" y="202"/>
      <point x="50" y="202" type="curve" smooth="yes"/>
      <point x="77" y="202"/>
      <point x="89" y="182"/>
      <point x="89" y="152" type="curve" smooth="yes"/>
      <point x="89" y="48" type="line" smooth="yes"/>
      <point x="89" y="18"/>
      <point x="77" y="-2"/>
    </contour>
    <contour>
      <point x="50" y="182" type="curve" smooth="yes"/>
      <point x="35" y="182"/>
      <point x="30" y="169"/>
      <point x="30" y="152" type="curve" smooth="yes"/>
      <point x="30" y="48" type="line" smooth="yes"/>
      <point x="30" y="31"/>
      <point x="35" y="18"/>
      <point x="50" y="18" type="curve" smooth="yes"/>
      <point x="65" y="18"/>
      <point x="69" y="31"/>
      <point x="69" y="48" type="curve" smooth="yes"/>
      <point x="69" y="152" type="line" smooth="yes"/>
      <point x="69" y="169"/>
      <point x="65" y="182"/>
    </contour>
    <contour>
      <point x="100" y="-2" type="line"/>
      <point x="50" y="-2" type="line"/>
      <point x="50" y="18" type="line"/>
      <point x="100" y="18" type="line"/>
    </contour>
  </outline>
</glyph>
<glyph name="R" format="1">
  <advance width="100"/>
  <unicode hex="0052"/>
  <outline>
    <contour>
      <point x="25" y="0" type="line"/>
      <point x="5" y="0" type="line"/>
      <point x="5" y="200" type="line"/>
      <point x="25" y="200" type="line"/>
    </contour>
    <contour>
      <point x="39.726" y="89.1726" type="curve" smooth="yes"/>
      <point x="15" y="89" type="line"/>
      <point x="15" y="109" type="line"/>
      <point x="39.726" y="109.1726" type="line" smooth="yes"/>
      <point x="57" y="109"/>
      <point x="69" y="126"/>
      <point x="69" y="145" type="curve" smooth="yes"/>
      <point x="69" y="163"/>
      <point x="57" y="180"/>
      <point x="40" y="180" type="curve" smooth="yes"/>
      <point x="15" y="180" type="line"/>
      <point x="15" y="200" type="line"/>
      <point x="40" y="200" type="line" smooth="yes"/>
      <point x="68" y="200"/>
      <point x="89" y="174"/>
      <point x="89" y="145" type="curve" smooth="yes"/>
      <point x="89" y="115"/>
      <point x="68" y="89"/>
    </contour>
    <contour>
      <point x="70.078" y="-0.0474" type="line"/>
      <point x="34.834" y="99.1726" type="line"/>
      <point x="54.676" y="99.1726" type="line"/>
      <point x="88.652" y="-0.0474" type="line"/>
    </contour>
  </outline>
</glyph>
<glyph name="S" format="1">
  <advance width="100"/>
  <unicode hex="0053"/>
  <outline>
    <contour>
      <point x="5" y="50" type="line"/>
      <point x="5" y="23"/>
      <point x="20" y="-2"/>
      <point x="45" y="-2" type="curve" smooth="yes"/>
      <point x="69" y="-2"/>
      <point x="84" y="22"/>
      <point x="84" y="48" type="curve" smooth="yes"/>
      <point x="84" y="73"/>
      <point x="71" y="95"/>
      <point x="50" y="108" type="curve" smooth="yes"/>
      <point x="36" y="119"/>
      <point x="25" y="134"/>
      <point x="25" y="152" type="curve" smooth="yes"/>
      <point x="25" y="167"/>
      <point x="32" y="182"/>
      <point x="45" y="182" type="curve" smooth="yes"/>
      <point x="62" y="182"/>
      <point x="64" y="160"/>
      <point x="64" y="140" type="curve"/>
      <point x="84" y="140" type="line"/>
      <point x="84" y="150" type="line"/>
      <point x="84" y="177"/>
      <point x="69" y="202"/>
      <point x="45" y="202" type="curve" smooth="yes"/>
      <point x="21" y="202"/>
      <point x="5" y="178"/>
      <point x="5" y="152" type="curve" smooth="yes"/>
      <point x="5" y="127"/>
      <point x="18" y="105"/>
      <point x="39" y="91" type="curve" smooth="yes"/>
      <point x="53" y="81"/>
      <point x="64" y="66"/>
      <point x="64" y="48" type="curve" smooth="yes"/>
      <point x="64" y="33"/>
      <point x="58" y="18"/>
      <point x="45" y="18" type="curve" smooth="yes"/>
      <point x="28" y="18"/>
      <point x="25" y="40"/>
      <point x="25" y="60" type="curve"/>
      <point x="5" y="60" type="line"/>
    </contour>
  </outline>
</glyph>
<glyph name="T" format="1">
  <advance width="100"/>
  <unicode hex="0054"/>
  <outline>
    <contour>
      <point x="60" y="0" type="line"/>
      <point x="40" y="0" type="line"/>
      <point x="40" y="200" type="line"/>
      <point x="60" y="200" type="line"/>
    </contour>
    <contour>
      <point x="94" y="178" type="line"/>
      <point x="5" y="178" type="line"/>
      <point x="5" y="200" type="line"/>
      <point x="94" y="200" type="line"/>
    </contour>
  </outline>
</glyph>
<glyph name="V" format="1">
  <advance width="100"/>
  <unicode hex="0056"/>
  <outline>
    <contour>
      <point x="59" y="0" type="line"/>
      <point x="40" y="0" type="line"/>
      <point x="77" y="200" type="line"/>
      <point x="97" y="200" type="line"/>
    </contour>
    <contour>
      <point x="40" y="0" type="line"/>
      <point x="2" y="200" type="line"/>
      <point x="22" y="200" type="line"/>
      <point x="59" y="0" type="line"/>
    </contour>
  </outline>
</glyph>
<glyph name="Y" format="1">
  <advance width="100"/>
  <unicode hex="0059"/>
  <outline>
    <contour>
      <point x="54.678" y="-0.0469" type="line"/>
      <point x="34.678" y="-0.0469" type="line"/>
      <point x="34.678" y="89.1631" type="line"/>
      <point x="54.678" y="89.1631" type="line"/>
    </contour>
    <contour>
      <point x="54.522" y="89.1531" type="line"/>
      <point x="21.094" y="198.3711" type="line"/>
      <point x="0.0" y="198.3711" type="line"/>
      <point x="34.678" y="89.1531" type="line"/>
    </contour>
    <contour>
      <point x="54.522" y="89.1531" type="line"/>
      <point x="89.21" y="198.3711" type="line"/>
      <point x="68.79" y="198.3711" type="line"/>
      <point x="34.678" y="89.1531" type="line"/>
    </contour>
  </outline>
</glyph>
<glyph name="Z" format="1">
  <advance width="100"/>
  <unicode hex="005A"/>
  <outline>
    <contour>
      <point x="20.01" y="8.4306" type="line"/>
      <point x="0.0" y="19.8746" type="line"/>
      <point x="70.156" y="188.4586" type="line"/>
      <point x="89.384" y="178.5366" type="line"/>
    </contour>
    <contour>
      <point x="89.218" y="178.4586" type="line"/>
      <point x="0.166" y="178.4586" type="line"/>
      <point x="0.166" y="198.4586" type="line"/>
      <point x="89.218" y="198.4586" type="line"/>
    </contour>
    <contour>
      <point x="89.218" y="-0.0474" type="line"/>
      <point x="0.0" y="-0.0474" type="line"/>
      <point x="0.0" y="19.9526" type="line"/>
      <point x="89.218" y="19.9526" type="line"/>
    </contour>
  </outline>
</glyph>
<glyph name="acute" format="1">
  <advance width="100"/>
  <unicode hex="00B4"/>
  <outline>
    <contour>
      <point x="46" y="180" type="line"/>
      <point x="72" y="202" type="line"/>
      <point x="43" y="202" type="line"/>
      <point x="22" y="180" type="line"/>
      <point x="46" y="180" type="line"/>
      <point x="22" y="180" type="line"/>
    </contour>
  </outline>
</glyph>
<glyph name="Eacute" format="1">
  <advance width="100"/>
  <unicode hex="00C9"/>
  <outline>
    <contour>
      <point x="30" y="0" type="line"/>
      <point x="10" y="0" type="line"/>
      <point x="10" y="170" type="line"/>
      <point x="30" y="170" type="line"/>
    </contour>
    <contour>
      <point x="90" y="150" type="line"/>
      <point x="20" y="150" type="line"/>
      <point x="20" y="170" type="line"/>
      <point x="90" y="170" type="line"/>
    </contour>
    <contour>
      <point x="75" y="74" type="line"/>
      <point x="20" y="74" type="line"/>
      <point x="20" y="94" type="line"/>
      <point x="75" y="94" type="line"/>
    </contour>
    <contour>
      <point x="90" y="0" type="line"/>
      <point x="20" y="0" type="line"/>
      <point x="20" y="20" type="line"/>
      <point x="90" y="20" type="line"/>
    </contour>
    <component base="acute"/>
    <component base="acute"/>
    <component base="acute"/>
  </outline>
</glyph>
